# xmcd
#
# Track frame offsets:
#	150
#	16807
#	40390
#	55900
#	78635
#	93319
#	112593
#	130020
#	146759
#	159267
#	184216
#	211828
#
# Disc length: 3014 seconds
#
# Revision: 1
# Processed by: cddbd v1.5.2PL0 Copyright (c) Steve Scherf et al.
# Submitted via: audiograbber 1.83.01
#
DISCID=950bc40c
DTITLE=Jeremiah Marques and the Blue Aces - Chicago Blues
DYEAR=1900
DGENRE=Blues
TTITLE0=This is Hip
TTITLE1=Ring Round My Heart
TTITLE2=Let Me Explain
TTITLE3=Gypsy Woman
TTITLE4=I'm Ready
TTITLE5=Stockyard Blues
TTITLE6=Blue Coat Man
TTITLE7=Oh Yeah
TTITLE8=Crawling Kingsnake
TTITLE9=Call My Job
TTITLE10=Screaming and Crying
TTITLE11=I've Got My Brand On You
EXTD=
EXTT0=
EXTT1=
EXTT2=
EXTT3=
EXTT4=
EXTT5=
EXTT6=
EXTT7=
EXTT8=
EXTT9=
EXTT10=
EXTT11=
PLAYORDER=
